{"title":"Projeto Thomaz Farkas 5 - Paulo Gil Soares","uid":5569476,"size":2229771226,"categoryP":"video","categoryS":"movies","magnet":"?xt=urn:btih:ee0b37b1b293da7222f14489e94a9489142d73d8&amp;dn=Projeto+Thomaz+Farkas+5+-+Paulo+Gil+Soares&amp;tr=udp%3A%2F%2Ftracker.openbittorrent.com%3A80&amp;tr=udp%3A%2F%2Fopen.demonii.com%3A1337&amp;tr=udp%3A%2F%2Ftracker.coppersurfer.tk%3A6969&amp;tr=udp%3A%2F%2Fexodus.desync.com%3A6969","seeders":4,"leechers":0,"uploader":"mfccorrea","files":9,"time":1274216903,"description":"Projeto Thomaz Farkas 5 - Paulo Gil Soares\n\nProject Thomaz Farkas is a collection of 39 documentaries produced by Thomas Farkas  in the 1960s and 1970s, featuring various cultural events of Brazil linked to the specific reality of each region. The documentaries were organized in a box containing seven discs, and include a short interview with the participation of renowned photographer, producer and documentary filmmaker, exposing a broad universe of Brazilian culture.\n\nThe Disc 5 contains the following documentaries:\n\nA MÃƒÂ£o do Homem (1969)\nA Morte do Boi (1970)\nErva Bruxa (1970)\nFrei DamiÃƒÂ£o Trombeta dos Aflitos Martelo dos Herejes (1970)\nJaramataia (1970)\nMemÃƒÂ³ria do CangaÃƒÂ§o (1964)\nO Homem de Couro (1970)\nVaquejada (1970)\n\nAll films have Portuguese audio, and no subtitles. There's a 300 dpi scan of the DVD cover included.\n\n   General\n      Complete name : Projeto Thomaz Farkas - Paulo Gil Soares.avi\n      Format : AVI\n      Format/Info : Audio Video Interleave\n      Format profile : OpenDML\n      File size : 2.08 GiB\n      Duration : 2h 32mn\n      Overall bit rate : 1 955 Kbps\n      Writing application : VirtualDubMod 1.5.10.2 (build 2540/release)\n      Writing library : VirtualDubMod build 2540/release\n   Video #0\n      ID : 0\n      Format : MPEG-4 Visual\n      Format profile : AdvancedSimple@L5\n      Format settings, BVOP : Yes\n      Format settings, QPel : No\n      Format settings, GMC : No warppoints\n      Format settings, Matrix : Default (MPEG)\n      Muxing mode : Packed bitstream\n      Codec ID : XVID\n      Codec ID/Hint : XviD\n      Duration : 2h 32mn\n      Bit rate : 1 718 Kbps\n      Width : 640 pixels\n      Height : 464 pixels\n      Display aspect ratio : 1.379\n      Frame rate : 23.976 fps\n      Resolution : 24 bits\n      Colorimetry : 4:2:0\n      Scan type : Progressive\n      Bits/(Pixel*Frame) : 0.241\n      Stream size : 1.83 GiB (88%)\n      Writing library : XviD 1.2.0.dev47 (UTC 2006-11-01)\n   Audio #1\n      ID : 1\n      Format : AC-3\n      Format/Info : Audio Coding 3\n      Codec ID : 2000\n      Duration : 2h 32mn\n      Bit rate mode : Constant\n      Bit rate : 224 Kbps\n      Channel(s) : 2 channels\n      Channel positions : L R\n      Sampling rate : 48.0 KHz\n      Stream size : 244 MiB (11%)\n      Alignment : Split accross interleaves\n      Interleave, duration : 42 ms (1.00 video frame)\n      Interleave, preload duration : 500 ms\n\nAll films were ripped individually. The specs refer to the films assembled together.\n","torrent":{"xt":"urn:btih:ee0b37b1b293da7222f14489e94a9489142d73d8","amp;dn":"Projeto+Thomaz+Farkas+5+-+Paulo+Gil+Soares","amp;tr":["udp%3A%2F%2Ftracker.openbittorrent.com%3A80","udp%3A%2F%2Fopen.demonii.com%3A1337","udp%3A%2F%2Ftracker.coppersurfer.tk%3A6969","udp%3A%2F%2Fexodus.desync.com%3A6969"],"infoHash":"ee0b37b1b293da7222f14489e94a9489142d73d8","infoHashBuffer":{"type":"Buffer","data":[238,11,55,177,178,147,218,114,34,241,68,137,233,74,148,137,20,45,115,216]},"announce":[],"urlList":[]}}